<svg width="36" height="31" viewBox="0 0 36 31" fill="none" xmlns="http://www.w3.org/2000/svg">
<g clip-path="url(#clip0_168_45)">
<path d="M11.249 12.5394C11.2051 12.6653 11.1637 12.7856 11.1226 12.9044C11.093 12.9097 11.0628 12.9142 11.0323 12.9201C10.9794 12.7952 10.9259 12.6695 10.8659 12.529C10.7704 12.6435 10.6798 12.752 10.5539 12.9019C10.4295 12.7462 10.3266 12.6178 10.1651 12.4148C10.0419 12.6361 9.91439 12.8129 9.8416 13.0092C9.64141 13.5544 9.46449 14.109 9.27783 14.6588C9.22992 14.7991 9.17702 14.9377 9.12911 15.078C8.7353 16.2344 8.34003 17.3906 7.9489 18.5491C7.60782 19.5594 7.29232 20.5787 6.92332 21.5803C6.81118 21.8851 6.80332 22.2453 6.49208 22.4802C6.42251 22.5328 6.5146 22.7228 6.46533 22.819C5.92311 23.8918 5.62625 25.0421 5.33999 26.1964C5.32356 26.2645 5.29982 26.3313 5.28632 26.3998C5.25047 26.5921 5.11026 26.8459 5.205 26.9646C5.40439 27.2143 5.69925 27.4575 6.00884 27.5862C6.50134 27.7911 7.03659 27.907 7.55723 28.0459C7.74976 28.0974 7.86342 28.0473 7.81529 27.8304C7.78745 27.7046 7.81762 27.5665 7.85342 27.4437C8.10494 26.5875 8.34233 25.7257 8.62737 24.8807C9.27242 22.9646 9.9466 21.0589 10.6002 19.1458C10.9767 18.0452 11.3376 16.9387 11.7056 15.8351C11.8466 15.4123 11.9783 14.9871 12.1349 14.5701C12.2609 14.2338 12.28 13.9042 12.1366 13.5459C12.0878 13.4232 12.1603 13.276 12.1471 13.14C12.1398 13.0693 12.0701 12.9459 12.0186 12.9383C11.7469 12.8948 11.54 12.7789 11.3786 12.5797C11.3606 12.5576 11.3048 12.5568 11.2496 12.5403L11.249 12.5394Z" fill="#CEFF00"/>
<path d="M20.2633 20.9336C20.1465 20.9756 20.0361 21.0158 19.9257 21.0559C19.9036 21.0353 19.8815 21.0148 19.8595 20.9943C19.9155 20.8766 19.9707 20.7595 20.0345 20.6274C19.8936 20.6221 19.7608 20.6175 19.5772 20.6099C19.6107 20.418 19.639 20.2607 19.6827 20.0102C19.4495 20.049 19.2447 20.055 19.0608 20.1184C18.5495 20.2929 18.0479 20.4903 17.5412 20.677C17.4121 20.7251 17.2802 20.7675 17.1518 20.815C16.0869 21.2079 15.0222 21.5994 13.9589 21.9964C13.0304 22.3425 12.1119 22.7138 11.1732 23.0324C10.8875 23.1298 10.627 23.342 10.2674 23.2406C10.1875 23.2181 10.1095 23.4052 10.0103 23.4246C8.91333 23.6511 7.9143 24.1161 6.91727 24.5912C6.85877 24.6194 6.79689 24.6409 6.73994 24.6731C6.58113 24.7613 6.31367 24.8061 6.28894 24.9519C6.23518 25.2595 6.24405 25.6364 6.34427 25.9569C6.50361 26.466 6.75194 26.9539 6.97557 27.445C7.05843 27.6272 7.16452 27.6853 7.28841 27.5162C7.35981 27.4186 7.47673 27.3585 7.5861 27.3114C8.34891 26.9888 9.1073 26.6526 9.88403 26.3627C11.6426 25.7059 13.4121 25.0775 15.1747 24.4282C16.1894 24.0551 17.197 23.6664 18.2085 23.2851C18.5954 23.1399 18.9789 22.9843 19.3714 22.8544C19.6878 22.7496 19.9338 22.5643 20.0993 22.235C20.1551 22.1225 20.3057 22.0903 20.3929 21.997C20.4384 21.9484 20.4828 21.8196 20.4569 21.7735C20.3196 21.5355 20.274 21.304 20.3158 21.0562C20.3207 21.0284 20.287 20.9839 20.2644 20.9316L20.2633 20.9336Z" fill="#CEFF00"/>
<path d="M16.999 19.4568C16.9382 19.403 16.8804 19.3535 16.8235 19.3034L16.8527 19.2225C16.9534 19.1905 17.0544 19.157 17.1687 19.1206C17.138 19.0238 17.1096 18.932 17.0691 18.8048C17.2188 18.7127 17.3415 18.637 17.5368 18.5168C17.4532 18.3865 17.4007 18.2549 17.3118 18.172C17.0667 17.9376 16.8069 17.7225 16.5605 17.4916C16.4975 17.4329 16.4374 17.371 16.3753 17.3117C15.8596 16.8248 15.3636 16.3202 14.8805 15.8067C14.4602 15.3571 14.032 14.9181 13.6594 14.4286C13.5465 14.2803 13.3427 14.1982 13.3873 13.9086C13.3977 13.8447 13.2346 13.8755 13.2078 13.8172C12.9099 13.1725 12.4427 12.6927 11.9788 12.1992C11.9513 12.1709 11.9292 12.1375 11.8985 12.1102C11.815 12.035 11.7638 11.8704 11.6361 11.9098C11.3681 11.9922 11.04 12.1425 10.7653 12.3325C10.3297 12.6352 9.9162 12.9932 9.50025 13.3348C9.34529 13.4614 9.30334 13.559 9.46087 13.5861C9.55251 13.6015 9.61495 13.6632 9.6637 13.7254L9.79243 13.8871L9.9246 14.0464L10.1883 14.3641C10.3669 14.5731 10.5389 14.7893 10.7095 15.0052C11.0907 15.5015 11.4823 15.9906 11.8856 16.4727C12.288 16.9554 12.7057 17.4287 13.1388 17.8874C13.6374 18.4158 14.1646 18.919 14.7028 19.4106C14.8057 19.5044 14.912 19.5956 15.0157 19.6887C15.1195 19.7819 15.2229 19.8764 15.3244 19.9737C15.4872 20.1308 15.6906 20.1977 15.9848 20.1162C16.0848 20.0886 16.1486 20.1723 16.2414 20.1767C16.2893 20.1791 16.3984 20.1335 16.4244 20.0883C16.5657 19.8543 16.7264 19.6864 16.9194 19.5665C16.9407 19.5529 16.9651 19.5036 16.9981 19.4574L16.999 19.4568Z" fill="#CEFF00"/>
<path d="M30.2802 3.48088C30.1558 3.60155 30.0378 3.71507 29.9196 3.83006C29.8882 3.82376 29.8563 3.81659 29.8241 3.81089C29.8564 3.65201 29.8884 3.4946 29.9243 3.31521C29.7582 3.40209 29.601 3.48526 29.3833 3.59927C29.3683 3.37841 29.3563 3.19659 29.3371 2.9093C29.0753 3.10308 28.837 3.24439 28.6398 3.43146C28.0913 3.94826 27.5591 4.48453 27.0208 5.01218C26.8833 5.14715 26.7413 5.27756 26.6037 5.41253C25.4696 6.52106 24.334 7.62934 23.2017 8.74046C22.214 9.71032 21.2441 10.6999 20.2367 11.6489C19.9288 11.938 19.6855 12.3283 19.2365 12.4618C19.1369 12.4917 19.098 12.7363 18.9878 12.8225C17.7692 13.7794 16.7306 14.9199 15.6996 16.0694C15.6394 16.1372 15.5733 16.2003 15.5158 16.2702C15.3547 16.4666 15.0548 16.6884 15.0661 16.8565C15.0911 17.2105 15.208 17.5951 15.4159 17.8607C15.7467 18.2831 16.176 18.6249 16.577 18.9865C16.7257 19.12 16.8655 19.1108 16.9624 18.8539C17.0186 18.7052 17.1374 18.5654 17.2534 18.4455C18.0556 17.6082 18.8468 16.7606 19.6732 15.9487C21.5442 14.1091 23.437 12.2914 25.3157 10.4592C26.3966 9.40468 27.4662 8.33757 28.5414 7.27675C28.9534 6.87097 29.3577 6.45778 29.7797 6.06434C30.1204 5.74711 30.3559 5.39314 30.4557 4.9427C30.4893 4.78933 30.6567 4.65661 30.732 4.50231C30.7717 4.42176 30.7873 4.25917 30.7434 4.22951C30.5157 4.07294 30.3968 3.86316 30.3754 3.58001C30.3726 3.54856 30.3216 3.52518 30.2795 3.48527L30.2802 3.48088Z" fill="#CEFF00"/>
</g>
<defs>
<clipPath id="clip0_168_45">
<rect width="13.8946" height="34.0419" fill="white" transform="matrix(0.573957 0.818885 0.818885 -0.573957 0 19.5386)"/>
</clipPath>
</defs>
</svg>
