<?xml version="1.0" encoding="utf-8"?>
<!-- Generator: Adobe Illustrator 28.2.0, SVG Export Plug-In . SVG Version: 6.00 Build 0)  -->
<svg version="1.1" id="Layer_1" xmlns="http://www.w3.org/2000/svg" xmlns:xlink="http://www.w3.org/1999/xlink" x="0px" y="0px"
	 viewBox="0 0 128 128" style="enable-background:new 0 0 128 128;" xml:space="preserve">
<style type="text/css">
	.st0{fill:#FFFFFF;}
	.st1{fill:#141414;}
</style>
<g>
	<path class="st0" d="M64,123.04c11.68,0,23.09-3.46,32.8-9.95c9.71-6.49,17.28-15.7,21.75-26.49c4.47-10.79,5.64-22.65,3.37-34.11
		c-2.27-11.45-7.89-21.97-16.15-30.23C97.52,14.01,87.01,8.38,75.55,6.1C64.1,3.81,52.23,4.97,41.44,9.43
		c-10.79,4.46-20.02,12.02-26.51,21.72c-6.5,9.7-9.97,21.11-9.98,32.79c0,15.66,6.22,30.69,17.29,41.77
		C33.31,116.8,48.33,123.03,64,123.04z M64,11.43c10.24,0,20.27,2.98,28.84,8.6s15.31,13.61,19.4,23
		c4.09,9.39,5.35,19.77,3.62,29.87c-1.73,10.1-6.37,19.47-13.35,26.96c-6.98,7.5-16,12.79-25.95,15.23
		c-9.95,2.44-20.4,1.92-30.05-1.49c-9.66-3.41-18.11-9.57-24.32-17.72s-9.9-17.93-10.62-28.15H72.4L57.15,82.97
		c-0.61,0.61-0.95,1.43-0.95,2.29c0,0.86,0.34,1.68,0.95,2.29c0.61,0.61,1.43,0.95,2.29,0.95c0.86,0,1.68-0.34,2.29-0.95l20.8-20.8
		c0.6-0.61,0.94-1.43,0.94-2.29c0-0.86-0.34-1.68-0.94-2.29l-20.8-20.8c-0.61-0.61-1.43-0.95-2.29-0.95c-0.86,0-1.68,0.34-2.29,0.95
		s-0.95,1.43-0.95,2.29c0,0.86,0.34,1.68,0.95,2.29L72.4,61.2H11.48c0.75-13.43,6.6-26.07,16.37-35.32S50.55,11.46,64,11.43z"/>
</g>
</svg>
