<?xml version="1.0" encoding="utf-8"?>
<!-- Generator: Adobe Illustrator 28.2.0, SVG Export Plug-In . SVG Version: 6.00 Build 0)  -->
<svg version="1.1" id="Layer_1" xmlns="http://www.w3.org/2000/svg" xmlns:xlink="http://www.w3.org/1999/xlink" x="0px" y="0px"
	 viewBox="0 0 578.18 131.57" style="enable-background:new 0 0 578.18 131.57;" xml:space="preserve">
<style type="text/css">
	.st0{fill:#FFFFFF;}
	.st1{fill:#D9AE28;}
	.st2{fill:#157970;}
	.st3{fill:#00A5AF;}
	.st4{fill:#FFD95D;}
</style>
<g>
	<g>
		<path class="st0" d="M242.28,74.55c0,1.5-0.1,3.07-0.29,4.69H204.7c0.26,3.25,1.32,5.76,3.18,7.51c1.93,1.69,4.27,2.53,7.03,2.53
			c4.11,0,6.97-1.69,8.58-5.07h17.54c-0.9,3.44-2.54,6.54-4.91,9.29c-2.31,2.75-5.24,4.91-8.77,6.48
			c-3.53,1.56-7.48,2.35-11.85,2.35c-5.27,0-9.96-1.09-14.07-3.28c-4.11-2.19-7.32-5.32-9.64-9.38c-2.31-4.07-3.47-8.82-3.47-14.26
			c0-5.44,1.12-10.2,3.37-14.26c2.31-4.07,5.53-7.19,9.64-9.38c4.11-2.19,8.83-3.28,14.17-3.28c5.2,0,9.83,1.06,13.88,3.19
			c4.05,2.13,7.19,5.16,9.44,9.1C241.12,64.69,242.28,69.29,242.28,74.55z M225.41,70.32c0-2.75-0.96-4.94-2.89-6.57
			c-1.93-1.63-4.34-2.44-7.23-2.44c-2.76,0-5.11,0.78-7.04,2.35c-1.86,1.56-3.02,3.79-3.47,6.66H225.41z M278.05,87.97v13.61h-8.38
			c-5.98,0-10.63-1.41-13.97-4.22c-3.34-2.88-5.01-7.54-5.01-13.98V62.53h-6.55V49.21h6.55V36.45h16.48v12.76h10.79v13.33h-10.79
			v21.02c0,1.56,0.39,2.69,1.16,3.38s2.06,1.03,3.85,1.03H278.05z M300.81,57.94c1.93-2.88,4.34-5.13,7.23-6.76
			c2.89-1.69,6.1-2.53,9.64-2.53v16.99h-4.53c-4.11,0-7.19,0.88-9.25,2.63c-2.06,1.69-3.08,4.69-3.08,9.01v24.31h-16.48V49.21h16.48
			V57.94z M319.39,75.3c0-5.38,1.03-10.1,3.08-14.17c2.12-4.07,4.98-7.19,8.58-9.38c3.6-2.19,7.61-3.28,12.05-3.28
			c3.79,0,7.1,0.75,9.93,2.25c2.89,1.5,5.11,3.47,6.65,5.91v-7.41h16.48v52.37h-16.48v-7.41c-1.61,2.44-3.86,4.41-6.75,5.91
			c-2.83,1.5-6.14,2.25-9.93,2.25c-4.37,0-8.35-1.09-11.95-3.28c-3.6-2.25-6.46-5.41-8.58-9.48
			C320.41,85.43,319.39,80.68,319.39,75.3z M359.67,75.39c0-4-1.16-7.16-3.47-9.48c-2.25-2.31-5.01-3.47-8.29-3.47
			c-3.28,0-6.07,1.16-8.38,3.47c-2.25,2.25-3.37,5.38-3.37,9.38c0,4,1.12,7.19,3.37,9.57c2.31,2.31,5.11,3.47,8.38,3.47
			c3.28,0,6.04-1.16,8.29-3.47C358.51,82.56,359.67,79.4,359.67,75.39z M417.94,48.65c6.3,0,11.31,2,15.03,6.01
			c3.79,3.94,5.69,9.38,5.69,16.33v30.59h-16.38V73.14c0-3.5-0.93-6.23-2.79-8.16c-1.86-1.94-4.37-2.91-7.52-2.91
			c-3.15,0-5.65,0.97-7.52,2.91s-2.8,4.66-2.8,8.16v28.44h-16.48V49.21h16.48v6.94c1.67-2.31,3.92-4.13,6.75-5.44
			C411.23,49.33,414.41,48.65,417.94,48.65z M463.7,56.62c1.54-2.44,3.76-4.41,6.65-5.91c2.89-1.5,6.2-2.25,9.93-2.25
			c4.43,0,8.45,1.09,12.04,3.28c3.6,2.19,6.42,5.32,8.48,9.38c2.12,4.07,3.18,8.79,3.18,14.17c0,5.38-1.06,10.14-3.18,14.26
			c-2.06,4.07-4.88,7.23-8.48,9.48c-3.6,2.19-7.61,3.28-12.04,3.28c-3.79,0-7.1-0.72-9.93-2.16c-2.83-1.5-5.04-3.47-6.65-5.91v7.32
			h-16.48V32.13h16.48V56.62z M487.21,75.3c0-4-1.16-7.13-3.47-9.38c-2.25-2.31-5.04-3.47-8.38-3.47c-3.27,0-6.07,1.16-8.38,3.47
			c-2.25,2.31-3.37,5.47-3.37,9.48s1.12,7.16,3.37,9.48c2.31,2.31,5.11,3.47,8.38,3.47c3.28,0,6.07-1.16,8.38-3.47
			C486.05,82.49,487.21,79.3,487.21,75.3z M518.02,43.77c-2.89,0-5.27-0.81-7.13-2.44c-1.8-1.69-2.7-3.75-2.7-6.19
			c0-2.5,0.9-4.57,2.7-6.19c1.86-1.69,4.24-2.53,7.13-2.53c2.83,0,5.14,0.84,6.94,2.53c1.86,1.63,2.79,3.69,2.79,6.19
			c0,2.44-0.93,4.5-2.79,6.19C523.16,42.95,520.84,43.77,518.02,43.77z M526.21,49.21v52.37h-16.48V49.21H526.21z M550.68,88.34H574
			v13.23h-41.73V88.81l22.36-26.37h-22.16V49.21h41.05v12.76L550.68,88.34z"/>
	</g>
	<g>
		<polygon class="st1" points="98.63,75.89 98.65,75.87 98.63,75.87 94.68,73.29 65.86,55.8 26.12,85.8 98.63,128.11 98.82,127.82 
			98.63,127.96 		"/>
		<polygon class="st2" points="66.02,55.91 65.99,55.93 94.82,73.42 98.76,76 98.78,76 104.95,71.36 138.47,46.02 66.02,4.33 		"/>
		<polygon class="st3" points="65.89,55.78 65.89,4.19 4.52,50.32 4.52,102.33 34.82,79.34 65.86,55.8 		"/>
		<polygon class="st4" points="129.9,52.34 104.82,71.23 98.65,75.87 98.63,75.89 98.63,127.96 98.82,127.82 160,81.35 160,29.69 		
			"/>
	</g>
</g>
</svg>
