<svg width="38" height="38" viewBox="0 0 38 38" fill="none" xmlns="http://www.w3.org/2000/svg">
<path d="M34.5065 28.2167C33.1256 28.1016 31.9011 28.0022 31.3357 27.9539C30.9677 27.9241 30.6609 28.3829 30.3341 28.7621C30.327 28.7706 30.3199 28.7777 30.3142 28.7848C29.844 29.3302 29.334 29.8387 28.7899 30.3103C28.7715 30.3273 28.7516 30.3444 28.7317 30.36C28.3311 30.7023 27.8964 31.0602 27.9347 31.4693C27.9858 32.0289 28.0796 33.0672 28.1876 34.2475C28.2671 35.121 27.9333 35.9405 27.2897 36.1124C24.9869 36.7302 22.6841 37.3466 20.3827 37.9631C19.759 38.1307 19.0942 37.7117 18.7802 37.0313C18.2035 35.7829 17.692 34.675 17.4548 34.1622C17.3 33.8285 16.7459 33.7915 16.2501 33.6992C15.5185 33.5629 14.794 33.3725 14.0851 33.1254C13.5836 32.9521 13.0509 32.7476 12.7099 32.9834C12.2454 33.3058 11.3802 33.9052 10.3943 34.5883C9.67408 35.0883 8.79613 35.2062 8.32307 34.7318L3.26425 29.6754C2.80681 29.2194 2.8338 28.4326 3.2614 27.8162C4.05127 26.677 4.75163 25.6672 5.07411 25.2013C5.28579 24.8959 5.03718 24.396 4.87097 23.9173C4.62378 23.2071 4.43341 22.4828 4.29561 21.7484C4.19901 21.2286 4.10809 20.6733 3.73447 20.5014C3.22305 20.2656 2.2755 19.8253 1.19725 19.3282C0.401699 18.9617 -0.140977 18.2629 0.0323385 17.6195C0.648887 15.3171 1.26686 13.0162 1.8834 10.7138C2.04962 10.0917 2.74572 9.72525 3.49154 9.79343C4.8596 9.917 6.07139 10.0278 6.63537 10.0789C7.00189 10.113 7.31301 9.64998 7.64117 9.26648C7.65396 9.25086 7.66816 9.23524 7.68095 9.21961C8.15402 8.6742 8.66544 8.16146 9.21238 7.68848C9.2209 7.6828 9.228 7.67712 9.23511 7.67002C9.6343 7.32772 10.069 6.97121 10.0349 6.56073C9.98803 5.99686 9.90138 4.94864 9.80193 3.75272C9.72948 2.8792 10.0662 2.06109 10.7125 1.88638C13.014 1.26995 15.3168 0.653526 17.6196 0.0370979C18.2447 -0.130501 18.9124 0.28566 19.232 0.964581C19.8244 2.22017 20.35 3.33087 20.593 3.84646C20.7492 4.17882 21.3047 4.21574 21.7976 4.30949C22.5307 4.44726 23.2523 4.64043 23.9612 4.88899C24.4641 5.06653 24.9969 5.26822 25.3364 5.03102C25.7967 4.70576 26.6476 4.10496 27.6179 3.42178C28.3339 2.91755 29.209 2.79683 29.6806 3.26838L34.7366 8.32338C35.1926 8.77931 35.1614 9.56475 34.7309 10.1783C33.9397 11.3004 33.2365 12.2947 32.9111 12.7577C32.698 13.0602 32.9467 13.5616 33.1129 14.0403C33.3629 14.7504 33.5561 15.4748 33.6953 16.2077C33.7919 16.7247 33.8814 17.2801 34.255 17.4562C34.7679 17.6976 35.7211 18.1493 36.8079 18.6606C37.6006 19.0342 38.1419 19.7358 37.9671 20.3821C37.3506 22.6845 36.734 24.9868 36.1161 27.2878C35.9484 27.9127 35.2537 28.282 34.5051 28.221L34.5065 28.2167ZM27.3551 10.6456C22.748 6.03946 15.2528 6.03946 10.6458 10.6456C6.03871 15.2518 6.03871 22.7455 10.6458 27.3517C15.2543 31.9579 22.7494 31.9579 27.3565 27.3517C31.9636 22.7455 31.9636 15.2518 27.3565 10.6456H27.3551Z" fill="white"/>
</svg>
