<svg width="256" height="187" viewBox="0 0 256 187" fill="none" xmlns="http://www.w3.org/2000/svg">
<path d="M154.3 104.925L154.33 104.91H154.3L147.96 101.878L101.65 81.3523L37.8203 116.561L154.3 166.204L154.61 165.86L154.3 166.036V104.925Z" fill="#D9AE28"/>
<path d="M101.91 81.4838L101.87 81.5057L148.17 102.039L154.51 105.063H154.54L164.45 99.614L218.29 69.8766L101.91 20.9572V81.4838Z" fill="#157970"/>
<path d="M101.7 81.3304V20.7964L3.12012 74.9315V135.948L51.7901 108.986L101.65 81.3523L101.7 81.3304Z" fill="#00A5AF"/>
<path d="M204.53 77.2982L164.24 99.4606L154.33 104.91L154.3 104.925V166.036L154.61 165.86L252.88 111.331V50.7164L204.53 77.2982Z" fill="#FFD95D"/>
</svg>
