<svg width="228" height="166" viewBox="0 0 228 166" fill="none" xmlns="http://www.w3.org/2000/svg">
<path d="M137.423 93.1416L137.449 93.1286H137.423L131.776 90.4376L90.5312 72.2165L33.6826 103.471L137.423 147.539L137.699 147.234L137.423 147.39V93.1416Z" fill="#D9AE28"/>
<path d="M90.7632 72.3332L90.7275 72.3527L131.963 90.5802L137.61 93.2648H137.637L146.463 88.4274L194.414 62.0295L90.7632 18.6037V72.3332Z" fill="#157970"/>
<path d="M90.5761 72.197V18.461L2.77832 66.5167V120.681L46.125 96.7469L90.5316 72.2165L90.5761 72.197Z" fill="#00A5AF"/>
<path d="M182.159 68.6177L146.276 88.2912L137.45 93.1286L137.423 93.1416V147.39L137.699 147.234L225.221 98.8284V45.021L182.159 68.6177Z" fill="#FFD95D"/>
</svg>
