<?xml version="1.0" encoding="utf-8"?>
<!-- Generator: Adobe Illustrator 28.2.0, SVG Export Plug-In . SVG Version: 6.00 Build 0)  -->
<svg version="1.1" id="Layer_1" xmlns="http://www.w3.org/2000/svg" xmlns:xlink="http://www.w3.org/1999/xlink" x="0px" y="0px"
	 viewBox="0 0 256 256" style="enable-background:new 0 0 256 256;" xml:space="preserve">
<style type="text/css">
	.st0{fill:#D9AE28;}
	.st1{fill:#157970;}
	.st2{fill:#00A5AF;}
	.st3{fill:#FFD95D;}
</style>
<g>
	<polygon class="st0" points="154.3,143.64 154.33,143.62 154.3,143.62 147.96,139.47 101.65,111.37 37.82,159.57 154.3,227.53 
		154.61,227.06 154.3,227.3 	"/>
	<polygon class="st1" points="101.91,111.55 101.87,111.58 148.17,139.69 154.51,143.83 154.54,143.83 164.45,136.37 218.29,95.66 
		101.91,28.69 	"/>
	<polygon class="st2" points="101.7,111.34 101.7,28.47 3.12,102.58 3.12,186.11 51.79,149.2 101.65,111.37 	"/>
	<polygon class="st3" points="204.53,105.82 164.24,136.16 154.33,143.62 154.3,143.64 154.3,227.3 154.61,227.06 252.88,152.41 
		252.88,69.43 	"/>
</g>
</svg>
