<svg width="256" height="256" viewBox="0 0 256 256" fill="none" xmlns="http://www.w3.org/2000/svg">
<path d="M154.3 143.64L154.33 143.62H154.3L147.96 139.47L101.65 111.37L37.8203 159.57L154.3 227.53L154.61 227.06L154.3 227.3V143.64Z" fill="#D9AE28"/>
<path d="M101.91 111.55L101.87 111.58L148.17 139.69L154.51 143.83H154.54L164.45 136.37L218.29 95.66L101.91 28.69V111.55Z" fill="#157970"/>
<path d="M101.7 111.34V28.47L3.12012 102.58V186.11L51.7901 149.2L101.65 111.37L101.7 111.34Z" fill="#00A5AF"/>
<path d="M204.53 105.82L164.24 136.16L154.33 143.62L154.3 143.64V227.3L154.61 227.06L252.88 152.41V69.43L204.53 105.82Z" fill="#FFD95D"/>
</svg>
