<?xml version="1.0" encoding="utf-8"?>
<!-- Generator: Adobe Illustrator 28.2.0, SVG Export Plug-In . SVG Version: 6.00 Build 0)  -->
<svg version="1.1" id="Layer_1" xmlns="http://www.w3.org/2000/svg" xmlns:xlink="http://www.w3.org/1999/xlink" x="0px" y="0px"
	 viewBox="0 0 256 256" style="enable-background:new 0 0 256 256;" xml:space="preserve">
<style type="text/css">
	.st0{fill:#161212;}
	.st1{fill:#D9AE28;}
	.st2{fill:#157970;}
	.st3{fill:#00A5AF;}
	.st4{fill:#FFD95D;}
</style>
<path class="st0" d="M218.01,256H37.99C17.01,256,0,238.99,0,218.01V37.99C0,17.01,17.01,0,37.99,0h180.02
	C238.99,0,256,17.01,256,37.99v180.02C256,238.99,238.99,256,218.01,256z"/>
<g>
	<polygon class="st1" points="146.82,139.15 146.84,139.13 146.82,139.13 142.26,136.15 108.95,115.94 63.04,150.6 146.82,199.48 
		147.04,199.15 146.82,199.31 	"/>
	<polygon class="st2" points="109.09,116.02 109.06,116.04 142.36,136.25 146.92,139.23 146.94,139.23 154.07,133.87 192.79,104.59 
		109.09,56.43 	"/>
	<polygon class="st3" points="109.09,116.03 109.09,56.42 38.19,109.72 38.19,169.79 73.19,143.24 109.06,116.05 	"/>
	<polygon class="st4" points="182.95,112.01 153.97,133.85 146.84,139.15 146.82,139.16 146.82,199.48 147.04,199.31 217.73,145.56 
		217.73,85.81 	"/>
</g>
</svg>
